{"title":"Fantastic Mr Fox (2009) Ex-Sub DVDRip-By-NLU","uid":5700692,"size":758672984,"categoryP":"video","categoryS":"movies","magnet":"?xt=urn:btih:5110b02c34e3bad3da138deae069242a5c36cd62&amp;dn=Fantastic+Mr+Fox+%282009%29+Ex-Sub+DVDRip-By-NLU&amp;tr=udp%3A%2F%2Ftracker.openbittorrent.com%3A80&amp;tr=udp%3A%2F%2Fopen.demonii.com%3A1337&amp;tr=udp%3A%2F%2Ftracker.coppersurfer.tk%3A6969&amp;tr=udp%3A%2F%2Fexodus.desync.com%3A6969","seeders":1,"leechers":0,"uploader":null,"files":8,"time":1279494843,"description":"Fantastic Mr Fox (2009) Ex-Sub DVDRip-By-NLU\n\n\nMM:   &lt;a href=&quot; http://www.moviemeter.nl/film/58916&quot; rel=&quot;nofollow&quot; target=&quot;_NEW&quot;&gt; http://www.moviemeter.nl/film/58916&lt;/a&gt;\n\nIMDB:   &lt;a href=&quot; http://www.imdb.com/title/tt0432283/&quot; rel=&quot;nofollow&quot; target=&quot;_NEW&quot;&gt; http://www.imdb.com/title/tt0432283/&lt;/a&gt;\n\nSubtitles: Retail: Dutch / English, French &amp; Portugues\n\nINFO:\n\nRelease name                     : Fantastic Mr Fox (2009) Ex-Sub DVDRip-By-NLU\nFormat                           : DivX\nFormat/Info                      : Hack of AVI\nFile size                        : 700 MiB\nDuration                         : 1h 23mn\nOverall bit rate                 : 1 175 Kbps\n\nVideo\nID                               : 0\nFormat                           : MPEG-4 Visual\nFormat profile                   : AdvancedSimple@L5\nFormat settings, BVOP            : Yes\nFormat settings, QPel            : No\nFormat settings, GMC             : No warppoints\nFormat settings, Matrix          : Custom\nMuxing mode                      : Packed bitstream\nCodec ID                         : DX50\nCodec ID/Hint                    : DivX 5\nDuration                         : 1h 23mn\nBit rate                         : 1 037 Kbps\nWidth                            : 640 pixels\nHeight                           : 352 pixels\nDisplay aspect ratio             : 16:9\nFrame rate                       : 25.000 fps\nResolution                       : 24 bits\nColorimetry                      : 4:2:0\nScan type                        : Progressive\nBits/(Pixel*Frame)               : 0.184\nStream size                      : 618 MiB (88%)\nTitle                            : Video \nWriting library                  : XviD 1.2.1 (UTC 2008-12-04)\n\nAudio\nID                               : 1\nFormat                           : MPEG Audio\nFormat version                   : Version 1\nFormat profile                   : Layer 3\nFormat_Settings_Mode             : Joint stereo / MS Stereo\nCodec ID                         : 55\nCodec ID/Hint                    : MP3\nDuration                         : 1h 23mn\nBit rate mode                    : Constant\nBit rate                         : 128 Kbps\nChannel(s)                       : 2 channels\nSampling rate                    : 48.0 KHz\nResolution                       : 16 bits\nStream size                      : 76.2 MiB (11%)\nAlignment                        : Split accross interleaves\nInterleave, duration             : 40 ms (1.00 video frame)\nInterleave, preload duration     : 500 ms\nTitle                            : Audio \nWriting library                  : LAME3.98r\nEncoding settings                : -m j -V 4 -q 7 -lowpass 17 -b 128\n\n","torrent":{"xt":"urn:btih:5110b02c34e3bad3da138deae069242a5c36cd62","amp;dn":"Fantastic+Mr+Fox+%282009%29+Ex-Sub+DVDRip-By-NLU","amp;tr":["udp%3A%2F%2Ftracker.openbittorrent.com%3A80","udp%3A%2F%2Fopen.demonii.com%3A1337","udp%3A%2F%2Ftracker.coppersurfer.tk%3A6969","udp%3A%2F%2Fexodus.desync.com%3A6969"],"infoHash":"5110b02c34e3bad3da138deae069242a5c36cd62","infoHashBuffer":{"type":"Buffer","data":[81,16,176,44,52,227,186,211,218,19,141,234,224,105,36,42,92,54,205,98]},"announce":[],"urlList":[]}}